<svg width="34" height="34" viewBox="0 0 34 34" fill="none" xmlns="http://www.w3.org/2000/svg">
<path fill-rule="evenodd" clip-rule="evenodd" d="M9.3001 2H24.3001C28.4422 2 31.8001 5.35787 31.8001 9.5V24.5C31.8001 28.6421 28.4422 32 24.3001 32H9.3001C5.15797 32 1.8001 28.6421 1.8001 24.5V9.5C1.8001 5.35787 5.15797 2 9.3001 2Z" stroke="white" stroke-width="3" stroke-linecap="round" stroke-linejoin="round"/>
<path fill-rule="evenodd" clip-rule="evenodd" d="M22.7953 16.0557C23.1747 18.6142 21.8706 21.1275 19.5603 22.2903C17.25 23.4531 14.4545 23.0033 12.6257 21.1744C10.7968 19.3456 10.347 16.55 11.5098 14.2397C12.6726 11.9295 15.1859 10.6254 17.7443 11.0048C20.3567 11.3921 22.4079 13.4434 22.7953 16.0557Z" stroke="white" stroke-width="3" stroke-linecap="round" stroke-linejoin="round"/>
</svg>
